<svg xmlns="http://www.w3.org/2000/svg" viewBox="0 0 1200 600" role="img" aria-label="Placeholder for the dependency graph visualization">
  <rect width="1200" height="600" rx="14" fill="#0d1117"/>
  <rect x="1" y="1" width="1198" height="598" rx="14" fill="none" stroke="#21304a" stroke-dasharray="8 8"/>

  <!-- edges -->
  <g stroke="#2b3b57" stroke-width="2">
    <line x1="600" y1="170" x2="380" y2="320"/>
    <line x1="600" y1="170" x2="600" y2="330"/>
    <line x1="600" y1="170" x2="820" y2="320"/>
    <line x1="380" y1="320" x2="300" y2="440"/>
    <line x1="600" y1="330" x2="600" y2="450"/>
    <line x1="820" y1="320" x2="900" y2="440"/>
  </g>

  <!-- nodes -->
  <g font-family="'Segoe UI', Helvetica, Arial, sans-serif" font-size="14" text-anchor="middle">
    <g><circle cx="600" cy="170" r="34" fill="#16241b" stroke="#34d399" stroke-width="2"/><text x="600" y="175" fill="#e6edf3">root</text></g>
    <g><circle cx="380" cy="320" r="28" fill="#111c2e" stroke="#34d399"/><text x="380" y="325" fill="#9fb0c3">Json</text></g>
    <g><circle cx="600" cy="330" r="28" fill="#111c2e" stroke="#fbbf24"/><text x="600" y="335" fill="#9fb0c3">MediatR</text></g>
    <g><circle cx="820" cy="320" r="28" fill="#111c2e" stroke="#34d399"/><text x="820" y="325" fill="#9fb0c3">Serilog</text></g>
    <g><circle cx="300" cy="440" r="24" fill="#111c2e" stroke="#3b4b66"/><text x="300" y="445" fill="#9fb0c3">…</text></g>
    <g><circle cx="600" cy="450" r="24" fill="#111c2e" stroke="#f87171"/><text x="600" y="455" fill="#9fb0c3">CVE</text></g>
    <g><circle cx="900" cy="440" r="24" fill="#111c2e" stroke="#3b4b66"/><text x="900" y="445" fill="#9fb0c3">…</text></g>
  </g>

  <text x="600" y="528" font-family="'Segoe UI', Helvetica, Arial, sans-serif" font-size="20" fill="#9fb0c3" text-anchor="middle">Interactive transitive dependency graph, color-coded by risk</text>
  <text x="600" y="560" font-family="'Segoe UI', Helvetica, Arial, sans-serif" font-size="15" fill="#5b6b82" text-anchor="middle">Placeholder · captured in Slice 5 · docs/assets/graph.png</text>
</svg>
